<?xml version="1.0" encoding="utf-8"?>
<!-- Generator: Adobe Illustrator 22.0.1, SVG Export Plug-In . SVG Version: 6.00 Build 0)  -->
<svg version="1.1" id="Lag_1" xmlns="http://www.w3.org/2000/svg" xmlns:xlink="http://www.w3.org/1999/xlink" x="0px" y="0px"
	 viewBox="0 0 612 612" style="enable-background:new 0 0 612 612;" xml:space="preserve">
<style type="text/css">
	.st0{fill:#2D95BF;}
	.st1{fill:#FFFFFF;}
	.st2{fill:#DFE1E2;}
	.st3{fill:#929495;}
	.st4{fill:#C6C8C9;}
	.st5{fill:#F8F9F9;}
	.st6{fill:#343637;}
</style>
<path class="st0" d="M612,510c0,56.1-45.9,102-102,102H102C45.9,612,0,566.1,0,510V102C0,45.9,45.9,0,102,0h408
	c56.1,0,102,45.9,102,102V510z"/>
<path class="st1" d="M458.5,294.7C458.5,294.6,458.5,294.6,458.5,294.7c0-0.1,0.1-0.1,0.1-0.1L458.5,294.7z"/>
<path class="st1" d="M495.4,220.8c-7.6,24.3-19,46.6-33.5,67.5c-1.4,1.9-3.8,3.4-3.5,6.3c-0.6,0.1-1.3,0.3-2,0.4
	c0.2,0.5,0.4,0.9,0.6,1.4c-6.7,5.3-12,13-22.9,9.9c-3.3-1-5-0.7-4-4.5c1.3-4.5,1.4-9.3,0.5-13.6c-1.3-6.1,0.6-13.3-5.6-17.9
	c-0.8-0.9-1.7-1.9-2.5-2.8c-2.4-6.6-6.1-12.5-10.5-18c-1.8-2.2-4.5-4.1-7.6-1.4c-0.8-0.4-1.6-0.9-2.4-1.3
	c7.6-15.3,11.4-31.8,15.1-48.3c4.9-22,7.8-44.2,8.3-66.8c0-0.8,0.3-1.7,0.5-3.2c7.4,3.6,10.7,9.8,13.1,16.4
	c4.2,11.3,5.2,23.3,5.3,35.2c0.2,24-3,47.5-10.5,70.3c-0.1,0.3,0.3,0.8,1.2,3.3c26.9-41.3,39.8-85.4,42-133.8c3.4,1.8,4.9,4.6,6.7,7
	C505,156.1,505.7,187.8,495.4,220.8z"/>
<path class="st1" d="M425.2,270.1c6.2,4.6,4.3,11.8,5.6,17.9c0.9,4.3,0.8,9.1-0.5,13.6c-1.1,3.8,0.7,3.5,4,4.5
	c10.9,3.1,16.1-4.6,22.9-9.9c0.7-0.4,1.6-0.6,1.5-1.7c0,0-0.1,0.1-0.1,0.1c5.1-1.1,7.8-5.3,11.2-8.4c21.3-19.5,38.5-42.2,52.3-67.7
	c0.9-1.6,1.7-3.2,2.6-4.8c0.2-0.3,0.7-0.5,1.7-1.1c5.4,25.2,2.2,48.8-9,71.5c-11.2,22.6-31.2,36.7-49.3,53.1
	c22.9-7.4,42.4-21,63-35.9c-4.9,21.1-12.5,38.9-27.8,52.9c-14.2,13-30.7,21.3-48.8,26.8c-5.9,0.4-11.7,2.9-17.7-0.1
	c-4.5-2.2-5.1-4.5-1.7-8.2c4.7-5.2,7.5-11.3,8.5-18.2c0.5-3,0.4-6.1-4-6.2l-0.2-0.1c-4.4-3.8-5.9-8.1-1.9-13
	c5.1-6.3,4.6-13.7,4.5-21c0-2.3-0.6-4.1-3.2-4.4c-1.2,0.4-2.4,0.9-3.6,1.3c-0.7-2.8-2.6-1.6-4.3-1.4c-3,0.4-4.6-1.3-3.9-4
	C430,293.7,427,282,425.2,270.1z"/>
<path class="st1" d="M505.5,373.2c-2.1-1.3-3.6-0.3-5,0.2c-7.8,2.8-15.8,4.9-23.9,6c-7.3,0.9-14.5,3.9-22.1,1.7
	c-5.9,0.4-11.7,2.9-17.7-0.1c-4.5-2.2-5.1-4.5-1.7-8.2c4.7-5.2,7.5-11.3,8.5-18.2c0.5-3,0.4-6.1-4-6.2c-0.8,15.1-11.2,28-24.8,30.8
	c-4,0.8-7.4,0.2-9.9-2.9c-2.4-2.9,0.4-5.4,0.9-8.2c1.9-9.8,7.9-13.7,17.4-14.5c5.6-0.5,11.1-2.5,16.2-5.4c-4.4-3.8-5.9-8.1-1.9-13
	c5-6.3,4.6-13.7,4.5-21c0-2.3-0.6-4.1-3.2-4.4c0.5,15.2-2.5,29.1-15.7,38.7c-1.7,1.2-3.2,2.7-5,3.4c-2.2,0.8-4.7,2.2-7.1,0
	c-2.1-2-1.7-4.5-1.3-7c1.3-8,2.5-16,3.7-23.9l-0.3-0.2c-0.8,0.5-1.7,1-2.5,1.5c-1.7,4.2-5,7.8-2.7,13.3c0.9,2.3-1.4,6-2.5,9
	c-1.6,4-4.8,7-2.5,12.7c1.5,3.6-3.8,7.8-6.5,11.4c-0.4,0.5-1,1-1.3,1.5c-1.5,2.6-6.2,3.9-5.1,6.8c1.3,3.3,5.9,0.9,9.1,2.2
	c-2.8,6.4-6.7,11.8-13.6,14.1c-2.2,0.7-4,1.9-4.3,3.9c-0.4,2.9,2.6,1.8,4,2.5c2.9,1.3,2.9,2.6,0.9,4.9c-2.8,3.2-6.8,4.5-10,7
	c-0.5,2.4-0.9,4.8-1.4,7.2c-4.7,5.5-11.2,5.3-17.8,5.4c-0.5,3.8,8.7,2.7,4,8.2c4,5.6,9.7,8.1,16.3,8.7c6.1,0.6,11.6-1.5,17-4.3
	c1.5-0.8,3.3-2.8,4.6-0.4c0.9,1.7-0.6,3.6-2.1,4.6c-2.7,1.7-5.5,3.1-8.4,4.5c-2.2,1.1-5.6,0.9-6,3.8c-0.4,2.9,1.9,4.9,4.6,6
	c2.2,0.6,4.4,1.3,6.6,1.9c14.4,4,28.2,3.6,42.2-5.8c-9.2-4.1-17.3-7.7-25.4-11.2c11.5,0.7,22.6,0.8,33.5-2.4
	c10.8-3.2,20.7-7.8,28.3-17.6c-13.3-2-26-1.7-38.2-5.3C466,415.2,489.9,401.7,505.5,373.2z M411.8,419.9c-1.1,3.9-4.8,4.4-7.8,5.4
	c-2.6,0.9-4.6,1.6-6.3,4.4c-2.5,4.2-5.4,0.2-7.8-1c-1.1-0.5-6.2-1.7-1.5-4.8c-2.3-9.2,5.3-17.2,14.5-15.2c4.2,0.9,8.5,1.6,12.7,2.4
	c0.3,3.5-3.3,4.5-4,7.1C412.1,418.8,412.8,419.4,411.8,419.9z M428.6,390c-5.9,8.7-14.7,12.6-24.3,14.5c-5.3,0.2-7.8-3.4-5.7-8.2
	c1.6-3.7,3.2-7.7,5.7-10.8c3.8-4.7,9.8-3.2,15-3.5c1.8-0.1,3.9,0.8,6,0.9c2.1,0.2,5.1-1.3,6.1,1.1
	C432.2,386.1,429.9,388.1,428.6,390z"/>
<path class="st1" d="M413.9,294.3c-2.9-9.5-2.3-18.3,0.4-27.5c0.7-2.3-0.7-5.3-1.2-7.9c-4.8-2.1-4.9-7.9-8.5-10.9
	c-0.8-0.4-1.6-0.9-2.4-1.3c-2.8,1.7-2.2,4.7-2.7,7.2c-1.4,7.7-3.2,15.3-3.6,23.1c-0.3,6.4-4.9,11-5.8,16.7
	c-1.5,9.3-1.6,18.9-2.9,28.2c-3.1,21.7-11.9,40.3-30.4,53.3c-8.1,5.6-16.9,8.8-26.9,8.3c-4.8-0.2-7.4-2.1-8.8-6.8
	c-2.6-8.6-6.2-16.8-11.7-24c-3.7-4.8-8-8.9-15-8c2.1,2.7,3.9,5.1,5.7,7.4c0.5,0.4,1,0.8,1.5,1.3c-0.5-0.4-1-0.9-1.5-1.3
	c0.8,5.9,0.8,11.8,0,17.7c1.4,4.2,2.6,8.1,3.7,11.9c1.7,5.8,3.4,11.7,4.9,17.6c4.8,18.8,7.8,38.5,3.1,61.1
	c-2.4,11.5-6.2,21.3-10.2,29.3c4.3,5.8,6.2,5,10.8-2.5c3.9-6.3,5.5-13.3,6-21.9c5,4.6,8.4,9.5,13.9,11.3c3.2,1.1,7.2,3.6,9.6,1
	c2.1-2.3-1.8-5.1-2.8-7.7c-0.2-0.6-0.3-1.2-0.6-3.1c7.4,5.3,13.7,10.7,22.3,11.4c3.1,0.2,7.1,2.5,8.8-1c1.3-2.7-2.6-4.8-4.4-7.1
	c-0.6-0.7-1.3-1.3-0.7-3.4c12.3,5.4,25,8,38.9,3.5c-5.4-6.1-12.2-9-16.5-14.7c-2.7-1.1-5-3.1-4.6-6c0.4-2.9,3.8-2.8,6-3.8
	c2.8-1.4,5.7-2.8,8.4-4.5c1.5-1,3-2.9,2.1-4.6c-1.3-2.4-3.2-0.4-4.6,0.4c-5.3,2.8-10.8,4.9-17,4.3c-6.6-0.6-12.3-3.1-16.3-8.7
	c4.7-5.5-4.5-4.4-4-8.2c6.5-0.1,13,0.1,17.8-5.4c-4.7-0.8-8.8-2.9-12-6.7c4.6,1.7,9,0.5,13.4-0.4c3.2-2.5,7.2-3.8,10-7
	c2-2.3,1.9-3.6-0.9-4.9c-1.4-0.6-4.4,0.4-4-2.5c0.3-2,2-3.2,4.3-3.9c6.9-2.3,10.8-7.7,13.6-14.1c-3.3-1.3-7.8,1.1-9.1-2.2
	c-1.1-2.9,3.6-4.3,5.1-6.8c0.3-0.6,0.9-1,1.3-1.5c2.7-3.6,8-7.9,6.5-11.4c-2.3-5.7,0.9-8.6,2.5-12.7c1.2-3,3.5-6.7,2.5-9
	c-2.3-5.5,1-9.1,2.7-13.3c-0.4-2.1,0.3-3.7,2.5-4.3C413,310,416.3,301.9,413.9,294.3z M341,440.9c1.3-0.9,2.6-1.4,3.2,0.8
	C343.1,441.4,342,441.1,341,440.9z"/>
<path class="st1" d="M297.4,378.4c0,0.1,0.1,0.1,0.1,0.2c0,0-0.1,0-0.1,0C297.3,378.6,297.4,378.4,297.4,378.4z"/>
<path class="st1" d="M430.8,309.8c-3,0.4-4.6-1.3-3.9-4c3-12.1,0.1-23.8-1.8-35.7c-0.8-0.9-1.7-1.9-2.5-2.8
	c-5.4-0.3-4.9-7.2-9.5-8.5c0.5,2.6,1.9,5.6,1.2,7.9c-2.7,9.2-3.3,18-0.4,27.5c2.3,7.6-0.9,15.7-1,23.6c0,0.9,0.1,1.9,0.1,2.8
	l0.3,0.2c3.6,0.1,6.7-1.2,9.4-3.5c5.7,0.9,8.6-3.6,12.5-6.2C434.5,308.3,432.5,309.5,430.8,309.8z M424,304.2c-1,3-2,6-2.9,9.1
	c-0.4,1.2-1.1,2.1-2.4,1.9c-1.5-0.3-1.3-1.7-1.3-2.8c0.5-11.2-0.2-22.4-1.2-33.5c-0.1-1.1-0.1-2.4,0.3-3.4c0.7-1.9,1.2-4.6,3.4-4.6
	c2.5,0,2.6,2.6,2.8,4.7C425.4,284.9,426.4,294.5,424,304.2z"/>
<path class="st1" d="M422.6,267.3c-5.4-0.3-4.9-7.2-9.5-8.5c-4.8-2.1-4.9-7.9-8.5-10.9c3.1-2.7,5.8-0.9,7.6,1.4
	C416.5,254.8,420.3,260.7,422.6,267.3z"/>
<path class="st1" d="M458.6,294.5c0.1,1.1-0.8,1.3-1.5,1.7c-0.2-0.5-0.4-0.9-0.6-1.4C457.2,294.8,457.9,294.7,458.6,294.5z"/>
<path class="st1" d="M173.4,309.8c-0.4,0.5-0.8,0.9-1.2,1.4C172.6,310.8,173,310.3,173.4,309.8z"/>
<path class="st1" d="M422.7,317.4c5.7,0.9,8.6-3.6,12.5-6.2c1.2-0.4,2.4-0.9,3.6-1.3c0.5,15.2-2.5,29.1-15.7,38.7
	c-1.5-0.2-3.1,0.1-3.9-1.9c-2.9-6.6-3.1-13.2,0.8-19.2C422,324.2,422.9,321.1,422.7,317.4z"/>
<path class="st1" d="M344.1,441.6c-1.1-0.3-2.1-0.5-3.2-0.8C342.3,440,343.5,439.5,344.1,441.6z"/>
<path class="st1" d="M439.4,348.4c-0.8,15.1-11.2,28-24.8,30.8c-4,0.8-7.4,0.2-9.9-2.9c-2.4-2.9,0.4-5.4,0.9-8.2
	c1.9-9.8,7.9-13.7,17.4-14.5c5.6-0.5,11.1-2.5,16.2-5.3C439.3,348.3,439.4,348.4,439.4,348.4z"/>
<path class="st1" d="M404.3,404.4c-5.3,0.2-7.8-3.4-5.7-8.2c1.6-3.7,3.2-7.7,5.7-10.8c3.8-4.7,9.8-3.2,15-3.5c1.8-0.1,3.9,0.8,6,0.9
	c2.1,0.2,5.1-1.3,6.1,1.1c0.9,2.1-1.5,4.1-2.7,5.9C422.8,398.7,414,402.5,404.3,404.4z"/>
<path class="st1" d="M388.4,424c-2.3-9.2,5.3-17.2,14.5-15.2c4.2,0.9,8.4,1.6,12.7,2.4c0.3,3.5-3.3,4.5-4,7.1c0,0.6,0,1.2,0,1.7
	c0,0,0.1-0.2,0.1-0.2C404.3,422.8,396.8,426.1,388.4,424z"/>
<path class="st1" d="M422.7,317.4c0.2,3.7-0.7,6.8-2.8,10.1c-3.9,6-3.7,12.6-0.8,19.2c0.9,1.9,2.4,1.6,3.9,1.9
	c-1.7,1.2-3.2,2.7-5,3.4c-2.2,0.8-4.7,2.2-7.1,0c-2.1-2-1.7-4.5-1.3-7c1.3-8,2.5-16,3.7-23.9C416.9,321,420,319.7,422.7,317.4z"/>
<path class="st1" d="M388.4,424c8.4,2.2,15.9-1.2,23.4-4.2c-1.1,4-4.8,4.5-7.9,5.6c-2.6,0.9-4.7,1.6-6.3,4.4c-2.5,4.2-5.4,0.2-7.8-1
	C388.7,428.2,383.7,427.1,388.4,424z"/>
<path class="st1" d="M376,411.7c-0.5,2.4-0.9,4.8-1.4,7.2c-4.7-0.8-8.8-2.9-12-6.7C367.2,413.8,371.6,412.6,376,411.7z"/>
<path class="st1" d="M413,320.7c-0.8,0.5-1.7,1-2.5,1.5c-0.4-2.1,0.3-3.7,2.5-4.3C413,318.9,413,319.8,413,320.7z"/>
<path class="st1" d="M411.7,420c0-0.6,0-1.2,0-1.7C412.1,418.8,412.8,419.4,411.7,420z"/>
<path class="st1" d="M228.7,424.1c0.3-0.3,0.6-0.6,0.9-1c0.1,0.2,0.3,0.4,0.4,0.7c-0.4,0.1-0.9,0.1-1.3,0.2
	C228.6,424,228.7,424.1,228.7,424.1z"/>
<path class="st1" d="M424,304.2c-1,3-2,6-2.9,9.1c-0.4,1.2-1.1,2.1-2.4,1.9c-1.5-0.3-1.3-1.7-1.3-2.8c0.5-11.2-0.2-22.4-1.2-33.5
	c-0.1-1.1-0.1-2.4,0.3-3.4c0.7-1.9,1.1-4.6,3.4-4.6c2.4,0,2.6,2.6,2.8,4.7c-2.8,9.3,0.5,18.5,0.5,27.7
	C423.2,303.5,423.7,303.9,424,304.2z"/>
<path class="st1" d="M424,304.2c-0.3-0.3-0.9-0.7-0.9-1c0.1-9.2-3.3-18.4-0.5-27.7C425.4,284.9,426.4,294.5,424,304.2z"/>
<g>
	<path class="st2" d="M-238.5,152.1c9.5-19,14.2-39.5,18.7-60c6.1-27.3,9.7-54.9,10.3-82.9c0-1,0.3-2.1,0.7-3.9
		c9.2,4.4,13.2,12.1,16.3,20.4c5.2,14.1,6.5,28.9,6.6,43.7c0.3,29.8-3.7,59-13.1,87.3c-0.1,0.4,0.3,1,1.5,4.1
		C-164,109.5-148,54.8-145.3-5.3c4.3,2.3,6.1,5.7,8.3,8.7c26.1,36.2,26.9,75.6,14.2,116.5c-9.4,30.2-23.6,57.9-41.6,83.8
		c-1.7,2.4-4.7,4.3-4.3,7.9c0,0,0.1-0.1,0.1-0.1c-0.9,0.2-1.7,0.3-2.6,0.5c0.3,0.6,0.5,1.1,0.8,1.7c-8.4,6.5-14.9,16.2-28.4,12.3
		c-4.1-1.2-6.3-0.9-5-5.6c1.6-5.6,1.7-11.5,0.6-16.9c-1.6-7.6,0.7-16.6-6.9-22.3c-1.1-1.2-2.1-2.3-3.2-3.5c-3-8.2-7.6-15.6-13-22.3
		c-2.2-2.8-5.6-5.1-9.5-1.7C-236.6,153.2-237.5,152.6-238.5,152.1z"/>
	<path class="st2" d="M-551.5,208.5c1.3-4.7-2.6-7.3-4.7-10.4c-21.4-32.4-37.6-67-44-105.5c-6-36.5,3-69.2,28.7-99.5
		c2.6,61.2,18.9,116.2,51.6,166.8c1.5-4.3,0.4-7.5-0.5-11c-9.2-36.4-14.3-73.2-7.2-110.6c2.4-12.9,6.4-25.3,19.7-33.5
		c1.2,14.1,2,27.3,3.4,40.4c3.7,35.2,12.1,69.4,23.6,102.8c-2.9,3.7-5.9,7.4-8.8,11.1c-2,2.5-5.2,4.8-1.8,8.5
		c-0.1,1-0.2,2.1-0.3,3.1c-5.4,3-10,7.4-17,7.8c-3.3,0.2-4.5,5.1-5.3,8.9c-1.8,8.7-1.7,17.5-1.6,26.3c0.1,13.6,0.3,9.9-11.5,12.7
		c-3.7,0.9-6.5-1.5-9-3.8C-541.4,218-546.5,213.2-551.5,208.5z"/>
	<path class="st2" d="M-551.5,208.5c5.1,4.7,10.2,9.5,15.3,14.2c2.5,2.3,5.3,4.7,9,3.8c11.8-2.8,11.6,0.9,11.5-12.7
		c0-8.8-0.1-17.6,1.6-26.3c0.8-3.8,2-8.7,5.3-8.9c7-0.4,11.6-4.8,17-7.8c-0.1,2.9-0.1,5.8-0.2,8.7c-3,0.5-5.9,1-8.9,1.4
		c-3.6,1.8-6.2,4.4-6.3,8.7c-4.7,0.9-4.2,5.3-4.6,8.2c-1.1,8.2-1.8,16.6,0.5,24.6c1.8,6.3-0.3,9.6-5.9,11.5
		c-1.8-1.1-3.7-2.2-5.5-3.3c-0.5,0.6-1,1.2-1.6,1.7c0,0,0.1-0.1,0.1-0.1c-5.5,1.1-5.5,6-4.8,9.4c1.9,8.8,3.2,17.9,8.1,25.8
		c4.5,7.3,4.1,9.5-4.3,10.5c-7.2,0.9-6.9,5.1-5.9,9.5c1.9,8.7,5.7,16.7,12.2,22.9c4.9,4.7,2.9,7.4-2.1,9c-7.8,2.6-15.6,2-23.4-0.2
		c-2.8-2.8-6.6-3.1-10-4.3c-43.9-15.4-72.3-45-82.8-90.8c-0.2-0.8-0.1-1.6-0.2-3.5c24.4,17.7,48.7,33.8,77.5,45.7
		c-1.4-5.8-4.9-7-7.3-9.1c-21.2-18.1-43.4-35.2-55.4-61.7c-11.8-25.9-15.5-52.8-10.7-80.8c0.3-1.7,0.3-3.4,2.6-4.7
		c10.9,21.3,23.8,41.4,39.1,59.8c10.2,12.3,20.9,24.1,33,34.5C-556.5,206.1-554.8,208.6-551.5,208.5z"/>
	<path class="st2" d="M-210,181.3c7.7,5.7,5.4,14.7,6.9,22.3c1.1,5.4,1,11.3-0.6,16.9c-1.3,4.7,0.8,4.4,5,5.6
		c13.5,3.9,20.1-5.8,28.4-12.3c0.9-0.5,2-0.8,1.8-2.2c0,0-0.1,0.1-0.1,0.1c6.3-1.3,9.7-6.6,14-10.5c26.4-24.3,47.9-52.5,64.9-84
		c1.1-2,2.1-4,3.3-6c0.2-0.4,0.9-0.6,2.1-1.3c6.7,31.3,2.7,60.7-11.2,88.9c-13.9,28-38.8,45.6-61.2,65.9
		c28.4-9.2,52.6-26.1,78.3-44.5c-6.1,26.2-15.5,48.3-34.5,65.7c-17.6,16.1-38.1,26.5-60.7,33.3c-7.3,0.5-14.6,3.6-22-0.1
		c-5.5-2.7-6.4-5.6-2.1-10.2c5.8-6.4,9.3-14.1,10.5-22.6c0.6-3.8,0.5-7.6-5-7.7l-0.2-0.1c-5.5-4.7-7.3-10-2.3-16.2
		c6.3-7.8,5.7-17,5.6-26.1c0-2.9-0.7-5.1-4-5.5c-1.5,0.6-2.9,1.1-4.4,1.7c-0.9-3.5-3.2-2-5.4-1.7c-3.7,0.5-5.7-1.6-4.8-4.9
		C-204,210.5-207.7,195.9-210,181.3z"/>
	<path class="st3" d="M-257.6,411.3c5.3,7.1,13.8,10.7,20.5,18.3c-17.2,5.5-33,2.3-48.3-4.4c-0.7,2.6,0.1,3.3,0.8,4.2
		c2.2,2.8,7,5.5,5.4,8.8c-2,4.3-7.1,1.5-10.9,1.2c-10.6-0.8-18.5-7.5-27.7-14.1c0.5,2.3,0.5,3.1,0.8,3.8c1.3,3.3,6.1,6.8,3.5,9.6
		c-3,3.2-8,0.1-11.9-1.2c-6.9-2.3-11-8.4-17.3-14.1c-0.6,10.7-2.5,19.4-7.4,27.2c-6.5,10.4-8.6,10.5-15.6,0.1
		c-5.6-8.3-6.5-17.8-6.9-28.6c-6.9,6-11.4,13-19.1,15.6c-3.7,1.2-7.8,4.3-11.3,1.9c-4.4-3,2.6-6.1,0.8-10.7
		c-7.8,4.8-15.8,9.5-25.1,10.5c-3.5,0.4-8.2,2.7-10.3-0.7c-2.1-3.4,3-5.4,4.6-8.2c0.7-1.2,1.5-2.4,3.7-5.9
		c-17.3,7.3-32.9,10.4-49.1,5c3.2-7.7,12.9-8.6,15.5-16.3c1-0.5,2-1.1,3.1-1.5c3.7-1.4,7-3.5,6.7-7.7c-0.3-3.8-4.5-3.5-7.2-4.8
		c-4.1-1.8-8-4.2-11.7-6.7c-1.5-1-3.8-2.4-2.8-4.7c1.2-2.7,3.4-0.9,5.1-0.3c3.7,1.4,7.3,3.2,11.1,4.4c12.6,4,21.3,0.7,27.1-10
		c11.7,6,23.1,6.2,33.9-2.1c1.2,5.1-5.2,5.8-5.6,10l-0.6,0.1c-8.1,2.4-16.2,5.3-24.6,0.8c-2-1-3.8,0.2-5.4,1.5
		c-4.3,3.5-8.5,7.1-13,10.9c13.4,5.7,27.8,3.5,37.4-5.9c2-1.9,4.1-2.8,6.4-3.7c15.5-2,26.1-10.7,32.8-24.4c4.4-9,6-18.9,8-28.7
		c3,0.3,5.9,0.5,8.9,0.8c0.8,10.8,3.8,21,9,30.3c5.9,10.5,13.8,19.1,26.8,20.8c0.9,0.2,1.8,0.3,2.7,0.5c1.3,0.3,2.6,0.6,4,1
		c12.7,12.8,28.2,16.3,40,8.7c-9.2-9.1-20.5-12.8-33.1-13.4c-5.4-0.3-11-0.2-13.3-6.6c9.1,5.3,18.1,2.8,27.1-0.1
		c4.9,6.9,12,10,20.2,10.8c7.6,0.7,14.5-1.8,21.1-5.3c1.8-1,4.1-3.4,5.7-0.5c1.1,2.1-0.7,4.5-2.6,5.7c-3.3,2.1-6.9,3.8-10.4,5.6
		c-2.7,1.3-6.9,1.1-7.4,4.7C-263.8,407.4-261,409.9-257.6,411.3z"/>
	<path class="st4" d="M-257.6,411.3c-3.3-1.4-6.2-3.9-5.7-7.4c0.4-3.6,4.7-3.4,7.4-4.7c3.5-1.7,7.1-3.5,10.4-5.6
		c1.9-1.2,3.8-3.6,2.6-5.7c-1.6-3-3.9-0.5-5.7,0.5c-6.6,3.5-13.4,6-21.1,5.3c-8.2-0.8-15.3-3.9-20.2-10.8c5.8-6.9-5.6-5.5-5-10.2
		c8.1-0.2,16.2,0.1,22.1-6.7c0.6-3,1.2-5.9,1.7-8.9c4-3.1,9-4.7,12.4-8.7c2.5-2.8,2.4-4.5-1.1-6c-1.8-0.8-5.5,0.5-5-3.1
		c0.4-2.5,2.6-4,5.3-4.9c8.6-2.9,13.4-9.6,16.9-17.5c-4-1.7-9.8,1.3-11.3-2.7c-1.4-3.6,4.5-5.3,6.3-8.5c0.4-0.7,1.2-1.2,1.7-1.9
		c3.4-4.5,9.9-9.8,8.1-14.2c-2.9-7.1,1.1-10.7,3.1-15.8c1.4-3.7,4.3-8.3,3.2-11.2c-2.8-6.9,1.2-11.3,3.4-16.6
		c1.1-0.6,2.1-1.3,3.2-1.9c0,0,0.3,0.2,0.3,0.2c-1.5,9.9-3,19.8-4.6,29.7c-0.5,3.2-1.1,6.2,1.6,8.7c2.9,2.8,6,1,8.8,0
		c2.3-0.8,4.2-2.8,6.3-4.2c16.4-12,20.2-29.2,19.5-48.1c3.3,0.4,4,2.6,4,5.5c0.1,9.1,0.7,18.3-5.6,26.1c-5,6.2-3.1,11.5,2.3,16.2
		c-6.3,3.5-13.2,6.1-20.1,6.6c-11.9,1-19.3,5.8-21.7,18c-0.7,3.4-4.2,6.5-1.1,10.1c3.2,3.8,7.4,4.6,12.3,3.6
		c16.9-3.5,29.8-19.5,30.8-38.3c5.5,0.1,5.5,3.9,5,7.7c-1.3,8.5-4.7,16.2-10.5,22.6c-4.2,4.7-3.4,7.5,2.1,10.2
		c7.5,3.7,14.7,0.6,22,0.1c9.4,2.7,18.4-1,27.4-2.2c10.1-1.3,20-4,29.7-7.4c1.8-0.6,3.6-1.8,6.3-0.3c-19.3,35.4-49,52.2-89,51.8
		c15.3,4.4,31,4,47.5,6.5c-9.5,12.3-21.7,18-35.1,21.9c-13.6,4-27.4,3.8-41.7,3c10,4.4,20.1,8.9,31.5,14
		c-17.4,11.7-34.6,12.1-52.5,7.2C-252.2,412.9-254.9,412.1-257.6,411.3z M-226.7,367.4c1.5-0.7,0.5-1.4,0-2.2c0.9-3.2,5.3-4.5,5-8.8
		c-5.3-1-10.5-1.9-15.8-3c-11.5-2.4-20.9,7.4-18.1,18.9c-5.9,3.8,0.4,5.3,1.8,6c2.9,1.4,6.6,6.5,9.7,1.2c2-3.4,4.6-4.4,7.8-5.5
		c3.9-1.3,8.4-1.9,9.8-6.9L-226.7,367.4z M-235.9,348c12-2.3,22.9-7.1,30.2-18c1.5-2.3,4.4-4.8,3.4-7.4c-1.3-3.1-5-1.2-7.6-1.4
		c-2.5-0.2-5.2-1.3-7.4-1.2c-6.4,0.3-13.9-1.6-18.6,4.3c-3.1,3.9-5,8.8-7,13.4C-245.6,343.8-242.4,348.3-235.9,348z"/>
	<path class="st4" d="M-431.6,382.4c-5.8,10.7-14.6,14-27.1,10c-3.8-1.2-7.3-3-11.1-4.4c-1.7-0.6-3.9-2.4-5.1,0.3
		c-1,2.3,1.3,3.7,2.8,4.7c3.8,2.5,7.6,4.8,11.7,6.7c2.8,1.2,6.9,0.9,7.2,4.8c0.3,4.2-3,6.3-6.7,7.7c-1.1,0.4-2.1,1-3.1,1.5
		c-4.7-0.7-8.9,1.5-13.4,2.3c-15.4,2.6-29.7-0.2-43.9-9.4c11.1-4.6,21.1-8.7,31.1-12.9c0-0.7,0-1.4,0-2.2
		c-28.5,4.2-54-1.3-76.8-23.3c17.9-2.1,33.7-4,49.5-5.9c-13.9-1.3-27.6-3-40.8-7.7c-21.4-7.7-36.1-23-47.7-41.9
		c-0.7-1.2-1.8-2.5-0.4-3.8c1.4-1.2,2.7,0,3.9,0.5c17.5,6.4,35.9,8.4,54.1,11.4c1.3,0.2,2.1-0.5,2.8-1.4c7.8,2.2,15.7,2.7,23.4,0.2
		c5-1.7,7-4.3,2.1-9c-6.5-6.2-10.3-14.2-12.2-22.9c-0.9-4.5-1.2-8.7,5.9-9.5c8.4-1,8.8-3.2,4.3-10.5c-4.9-7.9-6.2-17-8.1-25.8
		c-0.7-3.4-0.6-8.3,4.8-9.4c-0.5,13.7,3.1,26.3,11.1,37.5c4.7,6.6,10.5,11.9,19,13.3c5.7,0.9,8.4-1,6.2-7c-1.7-4.7-1.2-9.4-1.2-14.2
		c0-7.3-2.5-13.9-9.9-17.1c-6.6-2.8-12.4-6.8-18.3-10.7c5.6-2,7.7-5.2,5.9-11.5c-2.3-8-1.6-16.4-0.5-24.6c0.4-2.9-0.1-7.3,4.6-8.2
		c-2.4,16.3-4.5,32.6,5.3,47.6c1,1.8,2.2,3.8,4.5,2.4c3-1.8,2.2-5,1.7-7.7c-1.5-9.2-2.4-18.2,3.2-26.5c-2.7,19.8-0.5,38.3,15.5,54.5
		c-11.4-1.7-8.5,3.4-7,9.3c2.2,8.2,7.9,13.4,14.3,18.8c-4,1.6-6.7-0.1-9.5-0.1c-1.2-0.4-2.1-0.6-1.1,1.2c3.3,7.3,8.2,13.5,14,19
		c1.8,1.7,2.8,3.6,2,6c-0.8,2.6-3.2,1.6-5,2c-1.5,0.3-3.4-0.9-4.6,1.3c2.2,7.4,7.7,12,14.2,15.7c3,1.7,8.4,1.9,7.8,6.4
		c-0.6,4.6-6,1-8.6,3c-0.4,0.3-0.7,0.8-0.9,1.1c2.5,5.6,7.3,9.1,11.4,13.3c2.1,2.5,4.2,5,6.2,7.4c-0.5,3,2.3,4.2,3.5,6.3
		c-1.8,7.2,7.3,5.6,8.5,10.4C-431.4,381.4-431.3,381.9-431.6,382.4z M-454,372.5c-1.2-0.3-2.4-0.5-3.6-0.8c0-2.9,4.8-5.6,2.6-7.5
		c-5.3-4.5-7.5-12.1-14.9-14.3c-1-0.5-2-1-3-1.4c7.1-5.5,8.6-10.6-0.4-15.8c-1.5-0.9-2.8-3-3.2-4.8c-1.3-5.9-5.2-7.2-10.4-7
		c-1.5-2.4-4.7-0.1-6.3-2.2c2.8-3.2,6.8-1.5,10.2-2.4c2.3-0.6,4.5-1.1,5.7-3.3c1.5-2.9-10.4-25.4-13.8-25.6
		c-8.9-0.5-17.2-3.6-25.7-5.5c-2.1-0.5-4.4-2.8-6.3-0.8c-2,2.1-0.3,4.8,0.4,7.2c4,13.9,13.9,22.3,26.1,28.6
		c-3.2,3.4-8.2,1.7-11.7,4.1c-7.1-0.1-7,2.5-3.7,7.8c6.3,10.1,16.8,14.2,26.4,19.7c0.5,2.1-0.8,3.7-1.8,5.3
		c-1.6,3.3-7.2,0.7-7.9,5.4c-4,0.8-2.2,3.2-1.2,5c5.8,10,18.4,10.1,26,17.6c0.3,0.3,1.6-0.2,2.3-0.6c4.6-3,10.7-3.7,14.1-8.7
		c0.5-0.1,1.1-0.1,1.6-0.2c-0.2-0.3-0.3-0.6-0.5-0.8C-453.3,371.7-453.7,372.1-454,372.5z"/>
	<path class="st5" d="M-228.2,246c-2.1,5.3-6.2,9.7-3.4,16.6c1.2,2.8-1.7,7.5-3.2,11.2c-1.9,5-6,8.7-3.1,15.8
		c1.8,4.4-4.7,9.7-8.1,14.2c-0.5,0.7-1.3,1.2-1.7,1.9c-1.8,3.2-7.7,4.8-6.3,8.5c1.6,4.1,7.3,1.1,11.3,2.7c-3.5,8-8.3,14.7-16.9,17.5
		c-2.7,0.9-4.9,2.4-5.3,4.9c-0.5,3.6,3.2,2.3,5,3.1c3.6,1.6,3.6,3.2,1.1,6c-3.5,4-8.4,5.6-12.4,8.7c-5.5,1.2-10.9,2.6-16.7,0.5
		c4,4.8,9.1,7.3,15,8.3c-5.9,6.8-14,6.5-22.1,6.7c-0.7,4.7,10.8,3.4,5,10.2c-9,2.9-18.1,5.4-27.1,0.1c-11.7-11.2-19.3-24.8-24.3-40
		c-4.9-14.8-9.9-29.5-15.1-44.1c-2.1-5.8-3.7-12-9-15.9c-2.2-2.9-4.5-5.8-7.1-9.2c8.7-1,14.1,4,18.6,10c6.8,8.9,11.3,19.1,14.5,29.8
		c1.8,5.8,5.1,8.2,11,8.4c12.5,0.6,23.4-3.3,33.5-10.3c23-16.1,33.9-39.3,37.8-66.2c1.7-11.6,1.7-23.5,3.6-35.1
		c1.2-7.1,6.9-12.7,7.2-20.7c0.4-9.6,2.7-19.1,4.4-28.6c0.6-3.1-0.2-6.8,3.3-8.9c1,0.5,2,1.1,3,1.6c4.6,3.7,4.7,10.9,10.6,13.5
		c0.6,3.3,2.3,6.9,1.5,9.8c-3.3,11.5-4,22.4-0.5,34.2c2.9,9.5-1.1,19.5-1.2,29.4C-227.9,241.4-228.7,243.3-228.2,246z"/>
	<path class="st5" d="M-431.6,382.4c0.3-0.5,0.2-1-0.2-1.4c1-2.7,4.9-3.8,4.4-7.4c-4.5-1.1-8.7-2.1-12.9-3.1c-1.2-2.1-4-3.3-3.5-6.3
		c6.1,0.3,11.2-1.3,15.3-7.4c-7.9,0-14.7,0-21.5,0c-4-4.2-8.8-7.7-11.4-13.3c0.2-0.2,0.5-0.7,0.9-1.1c2.6-2,8,1.6,8.6-3
		c0.6-4.6-4.8-4.7-7.8-6.4c-6.5-3.7-11.9-8.3-14.2-15.7c1.2-2.3,3.1-1.1,4.6-1.3c1.8-0.3,4.2,0.6,5-2c0.8-2.4-0.2-4.3-2-6
		c-5.8-5.5-10.7-11.7-14-19c0.4-0.4,0.8-0.8,1.1-1.2c2.8,0,5.5,1.7,9.5,0.1c-6.3-5.4-12.1-10.6-14.3-18.8c-1.6-5.9-4.4-11,7-9.3
		c-16-16.2-18.2-34.7-15.5-54.5c0.3-1.2,0.6-2.4,0.8-3.6c3.5-0.2,2.7-2,2.4-4.6c-0.7-6-5.2-11.3-2.8-17.7c0.1-2.9,0.1-5.8,0.2-8.7
		c0.1-1,0.2-2.1,0.3-3.1c4-5.4,8-10.7,12-16.1c5.2-0.1,3.8,4.3,4.3,6.8c2.1,11.5,3.5,23.1,5.8,34.5c1,5-1.4,11.5,6,14.2
		c1,0.4,0.6,4.8,0.7,7.3c0.6,21.5,3.2,42.7,12.4,62.4c11.1,23.7,28.4,40.4,55.2,45c9.6,1.7,18.6,0.2,26.5-6c1.4,2.2,0.4,4.5-0.2,6.6
		c-5.7,21.2-13,41.7-28.7,58C-408.5,388.6-419.8,388.4-431.6,382.4z"/>
	<path class="st4" d="M-397.6,380.3c15.7-16.3,23.1-36.7,28.7-58c0.6-2.1,1.6-4.4,0.2-6.6c0,0,0,0.2,0,0.2c2.3-0.3,1.8-2.1,1.9-3.6
		c2.2-9.7,2.6-19.5,1.3-29.4c5.4,3.9,7,10.1,9,15.9c5.2,14.6,10.3,29.3,15.1,44.1c5,15.3,12.6,28.9,24.3,40
		c2.3,6.4,7.9,6.4,13.3,6.6c12.6,0.6,23.9,4.3,33.1,13.4c-11.8,7.5-27.3,4.1-40-8.7c-0.8-2.7-2.3-2-4-1c-0.9-0.2-1.8-0.3-2.7-0.5
		c-0.2-2.3-2.2-3.1-3.6-4.4c-7.3-6.6-14.3-13.1-18-22.9c-4.7-12.4-10.3-24.6-14.7-39c-1.2,6.4,2.1,10.7,0.4,15.2
		c-3-0.3-5.9-0.5-8.9-0.8c-0.7-4.3,1.2-8.9-0.7-13.2c-2.9,0.7-3.4,2.8-3.5,4.7c-1.3,18.2-9.5,33.8-20.4,47.7
		c-3.6,4.6-7.4,12.8-16.5,10.3C-402.9,386.2-396.4,385.4-397.6,380.3z"/>
	<path class="st4" d="M-479.5,151.6c-4,5.4-8,10.7-12,16.1c-3.4-3.7-0.1-6,1.8-8.5c2.9-3.7,5.8-7.4,8.8-11.1
		C-479.6,148.9-479.5,150.2-479.5,151.6z"/>
	<path class="st5" d="M-366.8,312.4c-0.1,1.5,0.4,3.3-1.9,3.6C-369.2,314.2-368.4,313.1-366.8,312.4z"/>
	<path class="st4" d="M-225.1,240.6c0.1-9.8,4.1-19.9,1.2-29.4c-3.6-11.8-2.9-22.7,0.5-34.2c0.8-2.9-0.9-6.5-1.5-9.8
		c5.7,1.5,5.1,10.2,11.8,10.5c1.1,1.2,2.1,2.3,3.2,3.5c2.3,14.7,6,29.3,2.2,44.3c-0.8,3.3,1.1,5.5,4.8,4.9c2.1-0.3,4.5-1.8,5.4,1.7
		c-4.8,3.3-8.5,8.9-15.5,7.7c-3.3,2.9-7.2,4.5-11.6,4.4c0,0-0.3-0.2-0.3-0.2C-225.1,242.9-225.1,241.8-225.1,240.6z M-211.4,223.5
		c2.9-12.1,1.6-23.9-1.7-35.7c-0.2-2.5-0.4-5.8-3.4-5.8c-2.8,0-3.3,3.5-4.2,5.8c-0.5,1.3-0.5,2.8-0.4,4.2
		c1.2,13.9,2.1,27.7,1.5,41.6c-0.1,1.3-0.3,3.1,1.6,3.5c1.6,0.3,2.5-0.9,3-2.4C-213.8,231-212.6,227.3-211.4,223.5z"/>
	<path class="st2" d="M-213.1,177.8c-6.8-0.3-6.1-9-11.8-10.5c-5.9-2.6-6.1-9.8-10.6-13.5c3.9-3.4,7.2-1.1,9.5,1.7
		C-220.7,162.2-216.1,169.5-213.1,177.8z"/>
	<path class="st2" d="M-168.5,211.6c0.2,1.4-1,1.7-1.8,2.2c-0.3-0.6-0.5-1.1-0.8-1.7C-170.2,211.9-169.3,211.7-168.5,211.6z"/>
	<path class="st5" d="M-517.2,233.8c5.9,4,11.7,7.9,18.3,10.7c7.4,3.2,9.9,9.9,9.9,17.1c0,4.8-0.4,9.5,1.2,14.2c2.2,6-0.6,7.9-6.2,7
		c-8.5-1.4-14.3-6.7-19-13.3c-8-11.1-11.6-23.7-11.1-37.5c0,0-0.1,0.1-0.1,0.1c0.5-0.6,1-1.2,1.6-1.7
		C-520.8,231.7-519,232.8-517.2,233.8z"/>
	<path class="st5" d="M-501.8,237.2c-9.8-15-7.7-31.3-5.3-47.6c0.1-4.3,2.7-6.9,6.3-8.7c1.4,3.4,2.9,6.8,4.3,10.2
		c-2.7,2.8-1.3,6.4-2,9.6C-501,212.7-498.5,225.2-501.8,237.2z"/>
	<path class="st4" d="M-496.5,191.1c-1.4-3.4-2.9-6.8-4.3-10.2c3-0.5,5.9-1,8.9-1.4c-2.4,6.4,2.2,11.7,2.8,17.7
		c0.3,2.6,1.1,4.4-2.4,4.6C-494.6,198.9-492.4,193.5-496.5,191.1z"/>
	<path class="st3" d="M-522.7,230.6c-0.5,0.6-1,1.2-1.6,1.7C-523.7,231.7-523.2,231.1-522.7,230.6z"/>
	<path class="st5" d="M-213.1,240c7,1.1,10.7-4.4,15.5-7.7c1.5-0.6,2.9-1.1,4.4-1.7c0.6,18.9-3.1,36.1-19.5,48.1
		c-1.9-0.3-3.8,0.1-4.9-2.3c-3.6-8.1-3.9-16.4,1-23.8C-213.9,248.4-212.8,244.6-213.1,240z"/>
	<path class="st4" d="M-403.2,390.3c9.1,2.6,12.8-5.7,16.5-10.3c10.9-13.9,19.1-29.4,20.4-47.7c0.1-1.9,0.6-4,3.5-4.7
		c1.9,4.3,0,8.9,0.7,13.2c-2,9.8-3.6,19.6-8,28.7c-6.7,13.7-17.3,22.3-32.8,24.4c-0.3-1.2-0.6-2.4-0.9-3.6L-403.2,390.3z"/>
	<path class="st4" d="M-353.2,341.7c1.7-4.5-1.6-8.8-0.4-15.2c4.4,14.5,10,26.6,14.7,39c3.7,9.8,10.7,16.3,18,22.9
		c1.4,1.3,3.4,2.1,3.6,4.4c-13-1.7-21-10.3-26.8-20.8C-349.4,362.8-352.4,352.5-353.2,341.7z"/>
	<path class="st4" d="M-403.8,390.4c0.3,1.2,0.6,2.4,0.9,3.6c-2.3,0.9-4.5,1.7-6.4,3.7c-9.7,9.4-24,11.7-37.4,5.9
		c4.5-3.8,8.7-7.3,13-10.9c1.6-1.3,3.4-2.5,5.4-1.5C-420,395.7-411.9,392.8-403.8,390.4z"/>
	<path class="st4" d="M-314.6,393.3c1.7-1.1,3.2-1.7,4,1C-311.9,394-313.3,393.6-314.6,393.3z"/>
	<path class="st5" d="M-192.3,278.4c-1,18.8-13.9,34.7-30.8,38.3c-4.9,1-9.1,0.2-12.3-3.6c-3-3.6,0.5-6.7,1.1-10.1
		c2.3-12.2,9.8-17,21.7-18c6.9-0.6,13.8-3.1,20.1-6.6C-192.5,278.3-192.3,278.4-192.3,278.4z"/>
	<path class="st5" d="M-235.9,348c-6.6,0.2-9.7-4.3-7.1-10.1c2-4.6,3.9-9.6,7-13.4c4.7-5.9,12.2-4,18.6-4.3c2.2-0.1,4.9,1,7.4,1.2
		c2.6,0.2,6.4-1.7,7.6,1.4c1.1,2.6-1.8,5.1-3.4,7.4C-212.9,340.9-223.9,345.7-235.9,348z"/>
	<path class="st5" d="M-255.6,372.3c-2.8-11.5,6.6-21.3,18.1-18.9c5.2,1.1,10.5,2,15.8,3c0.4,4.3-4,5.5-5,8.8c0,0.7,0,1.4,0,2.2
		c0,0,0.1-0.2,0.1-0.2C-235.9,370.9-245.2,375-255.6,372.3z"/>
	<path class="st5" d="M-213.1,240c0.3,4.6-0.8,8.5-3.5,12.5c-4.9,7.4-4.6,15.6-1,23.8c1.1,2.4,3,2,4.9,2.3c-2.1,1.4-4,3.4-6.3,4.2
		c-2.8,1-5.9,2.8-8.8,0c-2.7-2.5-2.1-5.6-1.6-8.7c1.6-9.9,3.1-19.8,4.6-29.7C-220.3,244.4-216.4,242.9-213.1,240z"/>
	<path class="st4" d="M-255.6,372.3c10.5,2.7,19.7-1.5,29-5.2c-1.3,5-5.9,5.6-9.8,6.9c-3.2,1.1-5.8,2-7.8,5.5
		c-3.1,5.3-6.7,0.2-9.7-1.2C-255.2,377.6-261.5,376.2-255.6,372.3z"/>
	<path class="st4" d="M-272.8,366c-5.9-1.1-10.9-3.6-15-8.3c5.7,2.1,11.2,0.7,16.7-0.5C-271.7,360-272.2,363-272.8,366z"/>
	<path class="st4" d="M-225.1,240.6c0,1.2,0.1,2.3,0.1,3.5c-1.1,0.6-2.1,1.3-3.2,1.9C-228.7,243.3-227.9,241.4-225.1,240.6z"/>
	<path class="st2" d="M-226.7,367.4c0-0.7,0-1.4,0-2.2C-226.2,365.9-225.3,366.6-226.7,367.4z"/>
	<path class="st5" d="M-496.7,316.8c-12.3-6.3-22.2-14.7-26.1-28.6c-0.7-2.4-2.3-5.1-0.4-7.2c1.9-2,4.2,0.3,6.3,0.8
		c8.6,1.9,16.8,5.1,25.7,5.5c3.4,0.2,15.4,22.7,13.8,25.6c-1.1,2.2-3.4,2.7-5.7,3.3c-3.4,0.9-7.4-0.8-10.2,2.4
		C-494.4,318-495.6,317.4-496.7,316.8z"/>
	<path class="st5" d="M-487,320.8c5.2-0.2,9.1,1.2,10.4,7c0.4,1.8,1.7,3.9,3.2,4.8c9,5.2,7.5,10.4,0.4,15.8c-4.3,0-8.5,0-12.8-0.1
		c-9.6-5.5-20.1-9.6-26.4-19.7c-3.3-5.3-3.4-7.9,3.7-7.8C-501.3,320.9-494.1,320.8-487,320.8z"/>
	<path class="st5" d="M-469.9,349.9c7.4,2.2,9.6,9.9,14.9,14.3c2.2,1.9-2.6,4.6-2.6,7.5c-15.2,3.6-28,0.2-37.7-12.6
		c0.7-4.7,6.3-2,7.9-5.4C-481.3,353.9-475.7,351.4-469.9,349.9z"/>
	<path class="st3" d="M-495.4,359.1c9.7,12.8,22.5,16.2,37.7,12.6c1.2,0.3,2.4,0.5,3.6,0.8l-0.1-0.1c-3.4,5.1-9.5,5.7-14.1,8.8
		c-0.7,0.4-2,0.9-2.3,0.6c-7.6-7.5-20.2-7.6-26-17.6C-497.6,362.3-499.4,359.9-495.4,359.1z"/>
	<path class="st5" d="M-496.5,191.1c4.1,2.4,1.9,7.8,5,10.6c-0.3,1.2-0.6,2.4-0.8,3.6c-5.6,8.3-4.8,17.3-3.2,26.5
		c0.5,2.8,1.2,5.9-1.7,7.7c-2.3,1.4-3.5-0.6-4.5-2.4c3.3-12,0.8-24.4,3.3-36.5C-497.8,197.5-499.2,193.9-496.5,191.1z"/>
	<path class="st4" d="M-450,356.9c6.8,0,13.7,0,21.5,0c-4.1,6.2-9.3,7.7-15.3,7.4C-445.9,361.8-447.9,359.3-450,356.9z"/>
	<path class="st4" d="M-440.3,370.6c4.2,1,8.5,2,12.9,3.1c0.5,3.5-3.4,4.6-4.4,7.4C-433,376.2-442.1,377.9-440.3,370.6z"/>
	<path class="st3" d="M-469.9,349.9c-5.8,1.5-11.4,4-17.6,3.8c1-1.6,2.3-3.2,1.8-5.3c4.3,0,8.5,0,12.8,0.1
		C-471.9,348.9-470.9,349.4-469.9,349.9z"/>
	<path class="st3" d="M-487,320.8c-7.2,0-14.3,0-21.5,0.1c3.5-2.4,8.5-0.7,11.7-4.1c1.1,0.6,2.3,1.2,3.4,1.8
		C-491.6,320.7-488.5,318.5-487,320.8z"/>
	<path class="st6" d="M-454,372.5c0.4-0.4,0.7-0.8,1.1-1.2c0.2,0.3,0.3,0.6,0.5,0.8c-0.5,0.1-1.1,0.1-1.6,0.2
		C-454.1,372.4-454,372.5-454,372.5z"/>
	<path class="st5" d="M-480.2,289.1c-1-1.7-0.1-1.6,1.1-1.2C-479.4,288.3-479.8,288.7-480.2,289.1z"/>
	<path class="st5" d="M-211.4,223.5c-1.2,3.7-2.5,7.5-3.6,11.3c-0.5,1.5-1.4,2.7-3,2.4c-1.9-0.3-1.6-2.1-1.6-3.5
		c0.6-13.9-0.3-27.8-1.5-41.6c-0.1-1.4-0.1-2.9,0.4-4.2c0.9-2.3,1.4-5.8,4.2-5.8c3,0,3.2,3.3,3.4,5.8c-3.5,11.5,0.7,23,0.6,34.4
		C-212.5,222.7-211.7,223.1-211.4,223.5z"/>
	<path class="st5" d="M-211.4,223.5c-0.4-0.4-1.1-0.8-1.1-1.2c0.1-11.5-4.1-22.9-0.6-34.4C-209.7,199.6-208.4,211.5-211.4,223.5z"/>
</g>
<g>
	<path class="st1" d="M293.7,368c-2.2,2.2-4.3,4.1-6.3,6.1c0.1,0.2,0.2,0.4,0.3,0.6c0.9-0.2,1.9-0.4,2.8-0.5
		c4.3-0.4,6.2,0.6,7.3,4.8c2.3,9.2,4.4,18.5,6.5,27.7c0.2,1,0.2,2,0.4,3.9c-8.4-11.4-19.7-17-32.1-20.8c-0.2,0.2-0.3,0.4-0.5,0.7
		c1,0.7,1.9,1.6,2.9,2.2c4.6,2.4,9.3,4.5,13.7,7.2c8.1,4.8,13.1,12.2,16.3,20.8c0.4,1.1,0.4,2.4,0.4,3.6c-0.2,17.4-4.2,34-9.6,50.3
		c-1.5,4.6,1.6,15.2,5.3,18.3c2.3,1.9,5.1,1.4,6.7-1.6c1.4-2.6,2.7-5.4,3.7-8.2c6.2-17.9,7.9-36.5,7.8-55.3
		c-0.1-10.1-1.3-20.2-1.9-30.3c-0.1-1.4,0.2-3.2,0.9-4.3c2.3-3.4,4.9-6.5,7.5-9.9c-3.9-1-6.7,1.5-10.2,3.2c-0.5-1.6-0.8-3.2-1.4-4.7
		c-2.4-6.8-5-13.6-7.4-20.4c-0.8-2.1-1.5-4.3-1.8-6.5c-1.9-13.3-0.9-26.4,3.3-39.2c0.4-1.1-0.3-2.5-0.5-3.8c-0.4,0-0.7,0-1.1,0
		c-1.7,2.9-3.4,5.8-5.2,9.1c-2.2-4.8-4.3-9.4-6.4-13.9c-4.3-9.3-8.5-18.6-10.4-28.8c-0.6-3.1-0.9-6.4-0.9-9.5c0-2.1-0.7-2.8-3.5-2.8
		c0.5,5.6,0.7,11.1,1.6,16.5c1.7,9.7,5,19,9.3,27.8c1.8,3.6,3.2,7.4,4.9,11c3.6,7.8,3.1,16.1,2.9,25.1c-1.7-2.5-2.9-4.5-4.2-6.5
		c-9.3-14.2-20.2-27.1-32.7-38.8c-0.7-0.6-1.4-1.3-1.7-2.2c-1.9-5.8-3.7-11.7-5.5-17.7c-1.2,3-2.5,6.4-3.9,9.9
		c-2.1-1.5-4.4-3.2-6.9-4.8c-4.7-3.1-9.5-6.2-14.3-9.3c-2-1.3-3-0.8-3.1,1.6c-0.1,3.1,0.5,5.5,3.6,7.5c17.7,11.6,31.8,27,43.3,44.6
		c6.6,10.1,12,20.9,17.9,31.5C292.5,364.2,293,366.1,293.7,368z"/>
	<path class="st1" d="M315.2,141.3c0.2,6.2,0.3,11.4,0.5,16.7c0.6,16.1-4.4,31-10.5,45.6c-5.3,12.8-11.1,25.4-16.7,38.1
		c-2.5,5.7-5,11.4-4.8,17.8c0.1,1.8,0.3,3.7,0.5,6.5c6.3-2.5,12.2-4.5,17.8-7.2c9.6-4.6,18.3-10.7,26-18.2
		c18.9-18.5,19.1-46.1,8.2-65.6c-5.2-9.4-11.6-18.1-17.4-27.1C317.7,145.9,316.7,143.9,315.2,141.3z"/>
	<path class="st1" d="M280,262.5c-0.2-11.8,4.6-21.4,8.7-31.2c6.9-16.6,14.1-33.1,20.6-49.8c4.8-12.3,5-25.3,4-38.3
		c0-0.3-0.2-0.5-0.5-1.3c-8.3,7.5-16.7,14.4-24.4,22.1c-5.6,5.7-11.1,11.9-15.1,18.7c-11.8,19.8-13.8,40.8-5.1,62.5
		C270.7,251.6,274.7,257.2,280,262.5z"/>
	<path class="st1" d="M199.5,252.3c-4.1,1.9-8,3.3-11.5,5.4c-9.6,5.8-17.6,13.7-25,22.1c-10.9,12.4-24.3,21-39.6,26.8
		c-6.2,2.3-12.1,5.2-18.2,7.9c-0.9,0.4-1.8,1-2.7,1.5c-6.7,4.5-6.4,10.3,0.9,14c9.7,4.9,19.8,4.9,30.1,1.9c8.7-2.6,15.8-8,22.6-13.8
		c7.3-6.2,14.9-12.3,19.9-20.6c2.5-4.1,4.4-8.6,6.3-13.1c2.9-6.6,5.1-13.6,8.4-20C192.7,260.2,196.1,256.8,199.5,252.3z"/>
	<path class="st1" d="M139.2,191.5c-0.9,1.9-1.8,3-2.1,4.2c-1.6,6.5-3.1,13-4.5,19.6c-0.8,3.5,0.6,6.1,3.2,8.5
		c2.8,2.6,5.6,5.2,8,8.2c4.3,5.4,4.9,11.8,2.5,17.9c-2.3,5.8-5.5,11.3-8.6,16.7c-3.3,5.8-7.2,11.3-10.5,17.2c-1.3,2.3-1.9,5-2.4,7.6
		c-0.5,2.6,1.1,4.3,3.7,4.1c5.9-0.6,11.6-1.8,15.9-6.5c6.6-7.2,13.3-14.2,19.8-21.3c0.7-0.7,1.4-2.1,1.2-2.8
		c-3.7-11.2-3.6-22.8-3.4-34.3c0.1-6,0.6-12,0.9-17.9c0-0.9-0.1-2.3-0.6-2.8C154.8,203.7,147.2,197.8,139.2,191.5z"/>
	<path class="st1" d="M185.1,456c7.6-10.1,18.1-13.7,28.6-17.6c11.2-4.2,22.5-8.4,33.4-13.2c6.8-3,12.9-7.4,17.9-13
		c4.1-4.6,6.7-9.8,6.7-16.2c0-2.7-0.6-3.7-3.6-3.8c-15.3-0.3-29.2,4.3-42.1,11.9c-6.6,3.9-13.1,8.4-19.2,13
		C194,426.7,187.2,439,185.1,456z"/>
	<path class="st1" d="M267.6,388.7c-2.7-3.8-6.2-6.6-10.2-8.8c-8.5-4.6-17.5-4.9-26.5-2.5c-19.8,5.4-35.5,16.2-44,35.6
		c-6,13.8-6.7,28.2-4.7,43.5c0.4-0.7,0.6-1,0.6-1.3c3-21.3,14.3-36.9,32.4-48.2c12.8-8,25.9-15.1,41-17.5
		C259.9,388.9,263.6,389,267.6,388.7z"/>
	<path class="st1" d="M162.3,317.8c20.7,5.2,42.7-4.1,53.8-23.1c2.1-3.6,4.1-7.5,5.2-11.5c2.9-10.2-2.6-20.3-12.5-24
		c-5-1.8-8.9-0.8-11.3,4c-2.1,4.2-3.6,8.8-4.6,13.4c-3.2,14-10.3,25.6-21.1,34.9C169,313.9,165.6,315.7,162.3,317.8z"/>
	<path class="st1" d="M134.6,148.3c0.6,0.4,0.9,0.6,1.3,0.7c19.3,6.7,29.2,21,32.7,40.4c1.8,10.1,1.5,20.3,0.9,30.6
		c-0.6,11-0.5,22.1-0.6,33.1c0,1.9,0.6,3.8,1,6.6c1.1-1.6,1.7-2.5,2.3-3.4c14.3-22.2,17.7-45.9,10.4-71.2
		c-2.1-7.2-3.4-14.7-7.8-21.1c-8.8-12.7-23.8-19.4-37.8-16.4C136.2,147.8,135.6,148,134.6,148.3z"/>
	<path class="st1" d="M117.4,303.2c-3.7,0.5-7.4,1-11.1,1.5c-3,0.4-6,0.6-8.9,1.1c-13.8,2-24.6-3.4-33.2-13.8
		c-8.4-10.1-12.5-21.7-12.1-34.9c0-0.8,0-1.6-0.5-2.7c-1.1,2-2.4,3.9-3.3,5.9c-4.4,10.6-4.2,21.6-1.6,32.5c1.2,5.2,3.3,10.2,5.7,15
		c3.2,6.5,9.1,10.1,16.1,11.4c10,1.8,19.6,0.4,28.6-4c7-3.5,13.6-7.6,20.4-11.4C117.5,303.6,117.5,303.4,117.4,303.2z"/>
	<path class="st1" d="M57.1,259.9c-1.4,14.9,9.8,31.6,24,36.6c10,3.5,20.3,3.4,30.6,1.6c0.8-0.1,1.9-1.6,1.9-2.4
		c0-4.8-0.2-9.7-0.5-14.5c0-0.6-0.4-1.4-0.9-1.8c-3.8-3.1-7.7-6.3-11.7-9.2c-3.3-2.4-6.7-2.4-10.1-0.1c-1.8,1.2-3.7,2.3-5.6,3.2
		c-10.1,4.6-20.4,1.1-25.6-8.7C58.6,263.3,58,261.9,57.1,259.9z"/>
	<path class="st1" d="M177.6,255.6c4.8-2,10.7-5,16.8-6.9c13.2-4.2,24,0.7,30.2,13c0.2,0.5,0.5,0.9,1,2c0.3-1.3,0.5-1.9,0.6-2.7
		c1.1-11.8-3.3-21.9-10-31.1c-7.4-10.2-16.7-18.5-27-25.9c0.7,3,1.6,5.9,2,8.9c0.8,6.6-0.5,13.1-2.9,19.1
		C184.9,240.3,180.9,248.4,177.6,255.6z"/>
	<path class="st1" d="M96.1,162.1c3.3,1.1,6.4,2.1,9.9,3.2c2.4-4.2,6-7.7,11.6-8.6c6.5-1,11.7,1.7,16.1,6.2c4.5,4.5,7,10.1,8.8,16.2
		c3,10.5,9.2,18.8,18,25.3c0.8,0.6,1.7,1,2.7,1.6c1.4-26.4-13.2-45.9-30.4-54.7C118.1,143.8,103.5,151,96.1,162.1z"/>
	<path class="st1" d="M120.3,206.5c-7.1,19.6-9.8,40.1-21.3,57.8c7.1,2.3,11.8,7.4,16.6,13.3C122.8,254.1,125,230.9,120.3,206.5z"/>
	<path class="st1" d="M120,297.6c0.2-10.2,5.8-18.3,10.5-26.7c2.5-4.4,5-8.8,7.6-13.1c5.1-8.5,4.1-16.7-0.9-24.8
		c-3.4-5.5-6.6-11.1-9.9-16.8c-0.4,1.5-1.1,3.2-1.2,4.9c-0.2,2.7-0.4,5.4,0.1,8c2.2,11.4,0.7,22.3-2.5,33.3
		c-2.3,7.7-3.9,15.6-5.3,23.5c-0.6,3.8,0.2,7.9,0.3,11.8C119.2,297.7,119.6,297.6,120,297.6z"/>
	<path class="st1" d="M109.5,167.8c7.1,0.2,10.8,2.8,12.3,10.1c1.6,7.9,2.4,15.9,3.5,23.8c0.3,2.2,0.4,4.4,0.7,7.6
		c1-1.6,1.6-2.4,2-3.2c4.3-9.9,6.8-20.1,6.8-30.9c0-3.8-0.7-7.3-3.9-10.1C124.5,159.6,116.1,160.5,109.5,167.8z"/>
	<path class="st1" d="M60.9,220.5c-4,2.9-6.7,6.6-8.3,11c-1.2,3.6-2.4,7.3-2.7,11c-0.4,6,3.1,10,9.1,10.2c4.3,0.2,8.6-0.6,12.8-1.5
		c3.7-0.8,7.3-2.3,11.9-3.7C65.9,246.5,61.2,235.4,60.9,220.5z"/>
	<path class="st1" d="M111.9,216.8c-1.3,3.5-2.4,6.8-3.8,10c-3.7,7.8-7.2,15.8-11.5,23.3c-3.3,5.8-8.5,10.1-15.3,11.9
		c-6.9,1.8-13.3,1.5-19.2-4c-0.1,4.6,1.7,7.6,4.9,10c6.7,4.9,15.9,4.6,23.2-0.7c5.2-3.8,9.2-8.6,11.2-14.6
		c3.9-11.5,7.3-23.2,10.9-34.9C112.4,217.6,112.2,217.4,111.9,216.8z"/>
	<path class="st1" d="M80,180c6.5-4.9,12.7-4.3,19-2.1c9.4,3.3,15.8,9.9,20.4,19.5c1.1-7.8,0.2-14.4-4.4-19.8
		c-2.9-3.4-6.3-6.6-9.9-9.2c-8.1-5.7-16.9-3.5-21.9,5C82.1,175.2,81.3,177.2,80,180z"/>
	<path class="st1" d="M110.3,188.5c-5.1-5.3-11.8-7.4-19.2-6.4c-7.8,1-14.6,4.5-19.9,10.5c-1.8,2-3.1,4.7-4,7.2
		c-1.2,3.3,0.1,6.3,2.5,7.6c2.3,1.2,5.4,0.7,7.5-2c2.2-2.8,4-6,5.7-9.2c3.1-5.9,7.9-9,14.4-9C101.7,187.1,106,188,110.3,188.5z"/>
	<path class="st1" d="M104.8,213.3c-0.6,2.2-0.9,4-1.5,5.7c-2.5,7.2-8,11.4-15,13.7c-3.9,1.3-8.1,1.7-12,2.8
		c-1.7,0.5-3.1,1.6-4.7,2.5c1.2,1.4,2.2,3.5,3.7,4c2.6,0.9,5.8,1.8,8.4,1.1c10.8-2.9,18.7-9.4,22-20.5
		C106.5,219.7,106.6,216.6,104.8,213.3z"/>
	<path class="st1" d="M97.1,223.2c-3.2,0.9-6.3,2.1-9.5,2.7c-6.8,1.3-11-1.3-13.5-7.9c-0.2-0.6-0.3-1.2-0.6-1.7
		c-0.7-1.1-1.5-2-2.2-3.1c-1.2,1-2.9,1.7-3.6,3c-3.5,6.8,1.7,15.5,9.5,16.2c4.7,0.4,8.9-1.4,12.9-3.7c2.6-1.4,4.9-3.3,7.3-5
		C97.3,223.5,97.2,223.3,97.1,223.2z"/>
	<path class="st1" d="M64.9,212.2c-0.3-5.9-0.6-11.3-0.9-16.5c-6.3,2-16.4,26.5-13.6,34.7C53.9,222.9,58.5,216.4,64.9,212.2z"/>
	<path class="st1" d="M97,191c6.3,2.7,8.3,7.7,8.4,14c0,1.6,1.3,3.2,1.9,4.8c1.6-0.7,3.5-1.1,4.7-2.3c3.8-3.6,3.7-8.2-0.1-12.6
		C107.9,190.4,102.8,189.4,97,191z"/>
	<path class="st1" d="M97.5,208.8c-2.4,2.5-4.6,5.4-7.3,7.6c-2.9,2.4-6.9,2-9.2-0.7c-1.1-1.3-1.6-3.2-2.3-4.6
		c-2.8,5.2-0.7,9.6,5.6,10.5c2.3,0.3,4.7,0.3,7.1,0C99.1,220.5,101.4,215.5,97.5,208.8z"/>
	<path class="st1" d="M95.1,245.3c-0.4,0.1-0.7,0.1-1.1,0.3c-6.4,2.5-12.7,5.1-19.6,7.9c3.4,1.3,6.3,2.4,9.2,3.3
		c0.9,0.3,2.3,0.2,2.8-0.4c3.2-3.3,6.3-6.9,9.4-10.3C95.6,245.8,95.3,245.5,95.1,245.3z"/>
	<path class="st1" d="M83.8,213.6c0.4-1.4,0.5-3.3,1.5-4.5c0.6-0.8,2.8-1.1,3.8-0.6c2.7,1.4,3.9,0.3,4.7-1.9c1-2.5,0-4.8-2.4-5.5
		c-2.9-0.9-6.7,0.9-8.6,4.1C80.9,208.4,81.4,211.4,83.8,213.6z"/>
	<path class="st1" d="M100,204.4c1.7-5.5-0.7-9.5-6.2-11.3c-4.5-1.4-7.3-0.2-8.6,4.2C91.7,196.2,97.2,197.2,100,204.4z"/>
</g>
</svg>
